<svg width="16" height="16" viewBox="0 0 16 16" fill="none" xmlns="http://www.w3.org/2000/svg">
<path d="M2 2.4C2 2.29391 2.04214 2.19217 2.11716 2.11716C2.19217 2.04214 2.29391 2 2.4 2H13.6C13.7061 2 13.8078 2.04214 13.8828 2.11716C13.9579 2.19217 14 2.29391 14 2.4V11.6C14 11.6525 13.9897 11.7045 13.9696 11.7531C13.9495 11.8016 13.92 11.8457 13.8828 11.8828C13.8457 11.92 13.8016 11.9495 13.7531 11.9696C13.7045 11.9897 13.6525 12 13.6 12H10.84C10.7853 11.9999 10.7312 12.0111 10.6809 12.0327C10.6307 12.0544 10.5855 12.0861 10.548 12.126L8.29133 14.524C8.25393 14.5638 8.20879 14.5954 8.15869 14.6171C8.10859 14.6387 8.05458 14.6499 8 14.6499C7.94542 14.6499 7.89141 14.6387 7.84131 14.6171C7.79121 14.5954 7.74607 14.5638 7.70867 14.524L5.452 12.126C5.41453 12.0861 5.36928 12.0544 5.31906 12.0327C5.26884 12.0111 5.2147 11.9999 5.16 12H2.4C2.29391 12 2.19217 11.9579 2.11716 11.8828C2.04214 11.8078 2 11.7061 2 11.6V2.4Z" stroke="#DB5B23" stroke-width="1.5"/>
<path d="M7.99999 4.66667L8.95 6.38334L10.6667 7.33334L8.95 8.28334L7.99999 10L7.04999 8.28334L5.33333 7.33334L7.04999 6.38334L7.99999 4.66667Z" stroke="#DB5B23" stroke-width="1.5" stroke-linecap="round" stroke-linejoin="round"/>
</svg>
